<?xml version="1.0" encoding="utf-8"?>
<!DOCTYPE svg PUBLIC "-//W3C//DTD SVG 1.0//EN" "http://www.w3.org/TR/2001/REC-SVG-20010904/DTD/svg10.dtd">
<svg version="1.0" xmlns="http://www.w3.org/2000/svg" width="483px" height="561px" viewBox="0 0 483 561" preserveAspectRatio="xMidYMid meet">
 <g fill="#ae35f9">
  <path d="M238.25 529.50 c-2.95 -0.65 -7.75 -2.90 -15.25 -7.25 -3.70 -2.15 -7.75 -4.45 -9 -5.15 -1.25 -0.70 -2.45 -1.40 -2.75 -1.60 -0.40 -0.30 -17.90 -10.40 -22.50 -13 -3.55 -2 -18.80 -10.85 -22.15 -12.85 -2 -1.15 -3.75 -2.15 -3.90 -2.15 -0.10 0 -1.05 -0.55 -2.10 -1.15 -1 -0.65 -6.35 -3.80 -11.85 -6.95 -5.50 -3.15 -12.20 -7.05 -14.85 -8.60 -11.25 -6.50 -14.75 -8.50 -16.15 -9.30 -1.40 -0.80 -4.20 -2.40 -16 -9.25 -2.45 -1.40 -8.30 -4.80 -13 -7.50 -4.65 -2.70 -11.40 -6.60 -15 -8.65 -3.55 -2.05 -7.50 -4.30 -8.75 -5 -1.25 -0.70 -3.60 -2.10 -5.25 -3.10 -1.65 -1 -4.45 -2.60 -6.25 -3.60 -8.60 -4.80 -13.60 -9.95 -16.60 -17.15 l-1.65 -4 -0.15 -108.25 c-0.10 -73.75 0.05 -109.35 0.40 -111.65 0.70 -4.55 2.60 -8.95 5.50 -12.70 3.10 -4.05 5.80 -6.15 14.05 -10.90 3.70 -2.15 7.55 -4.45 8.55 -5.10 1.05 -0.60 2 -1.15 2.15 -1.15 0.10 0 1.65 -0.85 3.35 -1.90 1.75 -1.05 4.15 -2.50 5.40 -3.20 1.25 -0.70 5.30 -3 9 -5.15 3.70 -2.15 7.75 -4.45 9 -5.15 1.25 -0.70 3.05 -1.75 4 -2.35 0.95 -0.60 2.80 -1.70 4.10 -2.40 1.30 -0.70 5.85 -3.35 10.10 -5.80 4.25 -2.50 8.50 -4.95 9.40 -5.50 0.95 -0.50 4.75 -2.70 8.45 -4.80 3.70 -2.15 7.70 -4.45 8.95 -5.15 1.25 -0.70 3.65 -2.15 5.40 -3.20 1.70 -1.05 3.20 -1.90 3.30 -1.90 0.10 0 4.40 -2.45 9.55 -5.50 5.15 -3 9.45 -5.50 9.55 -5.50 0.10 0 1.65 -0.90 3.45 -2 1.80 -1.10 3.40 -2 3.50 -2 0.15 0 1.10 -0.55 2.15 -1.15 1.70 -1.10 13.10 -7.75 17 -9.90 0.90 -0.55 5.15 -3 9.40 -5.50 4.25 -2.45 8.80 -5.10 10.10 -5.80 1.30 -0.70 3.20 -1.85 4.20 -2.50 1.05 -0.60 2 -1.15 2.10 -1.15 0.15 0 2.25 -1.20 4.65 -2.65 9.60 -5.80 14.15 -7.65 20.25 -8.10 7.35 -0.60 12.95 0.95 21.65 6 8.50 4.90 14 8.10 20.70 12 3.70 2.10 7.45 4.25 8.30 4.75 0.85 0.50 4.60 2.65 8.30 4.75 12.75 7.40 16.20 9.40 18.45 10.65 1.25 0.70 3.65 2.15 5.40 3.20 1.70 1.05 3.20 1.90 3.35 1.90 0.15 0 1.65 0.85 3.35 1.90 1.75 1.05 4.15 2.50 5.40 3.20 1.25 0.70 5.85 3.35 10.25 5.90 4.40 2.55 9 5.20 10.25 5.90 1.25 0.70 3.65 2.15 5.40 3.20 1.70 1.05 3.20 1.90 3.35 1.90 0.15 0 1.70 0.90 3.50 2 1.80 1.10 3.35 2 3.50 2 0.10 0 2.25 1.25 4.75 2.75 2.50 1.50 4.65 2.75 4.75 2.75 0.10 0 1.85 0.95 3.85 2.15 5.45 3.25 12.90 7.60 14.95 8.75 3.65 2.05 15.25 8.80 17.05 9.95 1.05 0.60 2 1.15 2.15 1.15 0.10 0 1.70 0.90 3.50 2 1.80 1.10 3.35 2 3.50 2 0.15 0 1.65 0.85 3.35 1.90 1.75 1.05 4.30 2.55 5.65 3.30 7.05 3.90 12.75 10 15.30 16.30 l1.70 4.25 0 110.75 0 110.75 -1.70 4.25 c-0.95 2.35 -2.45 5.15 -3.40 6.20 -0.90 1.10 -1.65 2.15 -1.65 2.30 0 0.70 -7.40 6.40 -10.30 8 -1.60 0.90 -3.15 1.80 -3.45 2 -0.25 0.20 -1.50 0.95 -2.75 1.65 -3.40 1.90 -10.95 6.20 -18.45 10.55 -3.70 2.15 -7.45 4.30 -8.30 4.80 -0.85 0.50 -4.60 2.65 -8.30 4.75 -11.15 6.50 -16.10 9.35 -17.75 10.25 -0.80 0.50 -4.50 2.60 -8.20 4.75 -3.70 2.15 -7.40 4.25 -8.20 4.75 -4.65 2.60 -22.10 12.70 -22.55 13 -0.25 0.20 -1.50 0.90 -2.75 1.60 -1.25 0.70 -5.30 3 -9 5.15 -3.70 2.15 -9.55 5.55 -13 7.50 -3.45 1.95 -9.25 5.35 -12.95 7.45 -3.70 2.15 -7.45 4.30 -8.30 4.80 -0.85 0.50 -4.60 2.65 -8.30 4.75 -3.70 2.15 -10.40 6.05 -14.95 8.65 -4.55 2.60 -8.50 4.90 -8.75 5.15 -0.30 0.20 -2.45 1.20 -4.75 2.25 -3.95 1.70 -4.65 1.85 -10 2 -3.15 0.10 -6.65 -0.05 -7.75 -0.30z m46.25 -237 l0 -83.50 -15.25 0 -15.25 0 0 12.50 c0 6.90 0 44.10 0 82.75 0 38.65 0 70.60 0 71 0 0.65 2.05 0.75 15.25 0.75 l15.25 0 0 -83.50z m111.20 82.40 c-0.50 -0.65 -1.85 -2.20 -2.95 -3.45 -1.10 -1.25 -3.05 -3.60 -4.35 -5.25 -1.25 -1.60 -2.75 -3.40 -3.25 -3.95 -0.55 -0.55 -2.20 -2.50 -3.70 -4.30 -4.90 -6 -8.05 -9.65 -10.25 -12.05 -1.20 -1.30 -2.20 -2.45 -2.20 -2.65 0 -0.20 -0.30 -0.60 -0.60 -0.95 -0.35 -0.35 -1.45 -1.60 -2.40 -2.80 -0.95 -1.20 -2.55 -3.05 -3.50 -4.20 -1 -1.15 -2.80 -3.30 -4 -4.75 -1.25 -1.50 -2.70 -3.25 -3.25 -3.80 -1.30 -1.40 -5.25 -6.05 -6.50 -7.70 -1.35 -1.75 -2.75 -3.40 -4.25 -5 -0.70 -0.75 -2 -2.30 -2.90 -3.45 l-1.70 -2.10 -18.75 0 -18.70 0 1.15 1.45 c2.05 2.50 16.10 19.30 16.40 19.55 0.15 0.15 1.75 2 3.50 4.20 1.80 2.15 4.70 5.65 6.50 7.75 1.80 2.10 4.70 5.60 6.50 7.75 1.80 2.15 7.15 8.50 11.85 14.10 4.75 5.65 9 10.80 9.45 11.45 l0.80 1.25 19.05 0 19 0 -0.95 -1.10z m-252 -48.50 c0.40 -0.90 3.90 -9.30 7.80 -18.65 3.90 -9.35 7.75 -18.45 8.50 -20.25 0.75 -1.80 3.20 -7.50 5.40 -12.75 7.65 -18.10 6.95 -16.25 5.90 -16.25 -0.65 0 -3 5.30 -12.80 28.75 -2 4.70 -5.40 12.80 -7.60 18 -8.10 19.10 -9.30 22.20 -8.70 22.45 0.30 0.10 0.60 0.25 0.65 0.25 0.05 0.05 0.45 -0.70 0.85 -1.55z m-32.40 -17.85 c-12.80 -12.80 -13.80 -13.95 -13.80 -15.55 0 -1.65 1 -2.75 13.75 -15.50 10.65 -10.65 13.75 -14 13.75 -15 0 -1 -2.80 1.55 -15.75 14.50 -8.65 8.65 -15.75 15.85 -15.75 16 0 0.15 7 7.35 15.60 16 13.65 13.80 15.60 15.60 15.75 14.55 0.20 -1 -1.85 -3.30 -13.55 -15z m94.20 -0.30 l15.25 -15.25 -15.75 -15.40 c-10.25 -10.10 -15.80 -15.20 -15.90 -14.65 -0.10 0.50 5.15 6.10 13.65 14.55 12.95 13 13.75 13.90 13.75 15.60 0 1.70 -0.75 2.50 -13.75 15.20 -10.20 9.90 -13.75 13.65 -13.75 14.50 0 0.75 0.25 1.05 0.65 0.90 0.30 -0.15 7.45 -7.10 15.85 -15.45z m138.05 -36.60 c2.05 -2.45 3.80 -4.50 3.95 -4.65 0.15 -0.15 2.65 -3.05 5.50 -6.50 2.90 -3.45 5.85 -6.90 6.55 -7.75 1.50 -1.70 10.55 -12.40 19.95 -23.50 3.45 -4.05 8.65 -10.25 11.60 -13.70 l5.40 -6.30 -18.85 -0.15 c-10.80 -0.05 -18.95 0.10 -19.10 0.35 -0.25 0.40 -3.40 4.15 -17.55 20.80 -2.60 3.05 -7 8.25 -9.75 11.50 -2.75 3.30 -7.15 8.45 -9.75 11.50 -2.60 3.10 -7.65 9.05 -11.20 13.30 -3.55 4.25 -6.80 8.10 -7.20 8.60 -0.70 0.80 0.20 0.85 18 0.85 l18.80 0 3.65 -4.35z"/>
 </g>
 <g fill="#75fcce">
  <path d="M252.30 375.90 c-0.20 -1.45 -0.10 -167.05 0.10 -168 0.05 -0.25 7.70 -0.40 17 -0.40 l16.85 0 -0.10 84.60 c-0.10 46.55 -0.15 84.80 -0.15 85.05 0 0.20 -7.55 0.35 -16.75 0.35 l-16.70 0 -0.25 -1.60z"/>
  <path d="M356.30 376.25 c-0.45 -0.65 -4.70 -5.80 -9.45 -11.45 -4.70 -5.60 -10.05 -11.95 -11.85 -14.10 -1.80 -2.15 -4.70 -5.65 -6.50 -7.75 -1.80 -2.10 -4.70 -5.60 -6.50 -7.75 -1.75 -2.20 -3.35 -4.05 -3.50 -4.20 -0.15 -0.15 -3.10 -3.60 -6.50 -7.75 -3.45 -4.10 -7.90 -9.40 -9.90 -11.75 l-3.65 -4.25 21.40 -0.15 21.40 -0.15 1.20 1.40 c2.80 3.35 5.35 6.30 6.05 7 0.40 0.45 1.20 1.40 1.75 2.15 1.15 1.60 5.05 6.20 6.50 7.75 0.55 0.55 2 2.30 3.25 3.80 1.20 1.45 3 3.60 4 4.75 0.95 1.15 2.55 3 3.50 4.20 0.95 1.20 2.05 2.45 2.40 2.80 0.30 0.35 0.60 0.75 0.60 0.95 0 0.20 1 1.35 2.20 2.65 2.20 2.40 5.35 6.05 10.25 12.05 1.50 1.80 3.15 3.75 3.70 4.30 0.50 0.55 2 2.30 3.25 3.95 2.15 2.65 4.80 5.80 8.65 10.15 0.80 0.90 1.45 1.85 1.45 2.15 0 0.35 -7.10 0.50 -21.45 0.50 l-21.45 0 -0.80 -1.25z"/>
  <path d="M140.35 325.25 c0.95 -2.20 2.20 -5.10 2.75 -6.50 0.55 -1.35 3.20 -7.80 5.95 -14.25 2.75 -6.45 6.20 -14.65 7.70 -18.25 1.50 -3.55 4.95 -11.65 7.60 -17.95 l4.90 -11.45 2.65 0 c1.45 0 2.75 0.10 2.85 0.25 0.15 0.10 -0.65 2.25 -1.70 4.70 -1.10 2.45 -3.80 8.85 -6.05 14.20 -2.25 5.35 -4.75 11.20 -5.50 13 -0.75 1.80 -4.60 10.90 -8.50 20.25 -3.90 9.35 -7.40 17.75 -7.80 18.65 -0.75 1.55 -0.80 1.60 -3.65 1.50 l-2.90 -0.15 1.70 -4z"/>
  <path d="M108.40 311.35 c-9.85 -9.90 -17.90 -18.10 -17.90 -18.30 0 -0.15 8.10 -8.40 18 -18.30 l18 -18 0 4.25 0 4.25 -13.85 13.85 -13.90 13.90 13.90 13.90 13.90 13.90 -0.15 4.25 -0.15 4.20 -17.85 -17.90z"/>
  <path d="M187.30 324.40 l0.10 -4.10 13.90 -13.60 13.95 -13.60 -13.90 -13.90 -13.85 -13.95 -0.05 -3.75 c-0.05 -2.05 -0.05 -3.85 0 -4 0 -0.15 8.20 7.80 18.15 17.65 l18.15 17.95 -17.90 17.70 c-9.80 9.75 -18.05 17.70 -18.25 17.70 -0.20 0 -0.30 -1.85 -0.30 -4.10z"/>
  <path d="M298.50 277.50 c0 -0.25 6.05 -7.50 16.45 -19.75 6.10 -7.25 16.20 -19.10 21.80 -25.75 2.50 -2.95 7.30 -8.65 10.75 -12.70 3.45 -4.05 7.05 -8.35 8 -9.55 l1.75 -2.20 21.65 -0.05 c17.15 0 21.60 0.15 21.25 0.60 -0.20 0.35 -3.20 3.95 -6.65 7.95 -3.45 4 -9.05 10.60 -12.50 14.70 -8.40 9.95 -18.35 21.65 -19.95 23.50 -0.70 0.85 -3.65 4.30 -6.55 7.75 -2.85 3.45 -5.35 6.35 -5.50 6.50 -0.15 0.15 -1.90 2.20 -3.95 4.65 -2 2.40 -3.80 4.35 -4 4.35 -0.15 0 -9.80 0.05 -21.45 0.15 -11.60 0.05 -21.10 0 -21.10 -0.15z"/>
 </g>
</svg>